ISO-10303-21;
HEADER;
/* Generated by software containing ST-Developer
 * from STEP Tools, Inc. (www.steptools.com) 
 */

FILE_DESCRIPTION(
/* description */ (''),
/* implementation_level */ '2;1');

FILE_NAME(
/* name */ 'Gripper.step',
/* time_stamp */ '2026-10-03T22:37:08+05:30',
/* author */ (''),
/* organization */ (''),
/* preprocessor_version */ 'ST-DEVELOPER v20.2',
/* originating_system */ 'Autodesk Translation Framework v15.15.0.0',
/* authorisation */ '');

FILE_SCHEMA (('AUTOMOTIVE_DESIGN { 1 0 10303 214 3 1 1 }'));
ENDSEC;

DATA;
#10=MECHANICAL_DESIGN_GEOMETRIC_PRESENTATION_REPRESENTATION('',(#13,#14,
#15),#1380);
#11=SHAPE_REPRESENTATION_RELATIONSHIP('SRR','None',#1387,#12);
#12=ADVANCED_BREP_SHAPE_REPRESENTATION('',(#16,#17,#18),#1379);
#13=STYLED_ITEM('',(#1396),#16);
#14=STYLED_ITEM('',(#1396),#17);
#15=STYLED_ITEM('',(#1396),#18);
#16=MANIFOLD_SOLID_BREP('Base',#838);
#17=MANIFOLD_SOLID_BREP('Jaw_Left',#839);
#18=MANIFOLD_SOLID_BREP('Jaw_Right',#840);
#19=FACE_BOUND('',#117,.T.);
#20=FACE_BOUND('',#119,.T.);
#21=FACE_BOUND('',#126,.T.);
#22=FACE_BOUND('',#127,.T.);
#23=FACE_BOUND('',#128,.T.);
#24=FACE_BOUND('',#129,.T.);
#25=FACE_BOUND('',#130,.T.);
#26=FACE_BOUND('',#134,.T.);
#27=FACE_BOUND('',#136,.T.);
#28=FACE_BOUND('',#148,.T.);
#29=FACE_BOUND('',#149,.T.);
#30=FACE_BOUND('',#151,.T.);
#31=FACE_BOUND('',#152,.T.);
#32=FACE_BOUND('',#154,.T.);
#33=FACE_BOUND('',#155,.T.);
#34=FACE_BOUND('',#156,.T.);
#35=FACE_BOUND('',#157,.T.);
#36=FACE_BOUND('',#158,.T.);
#37=FACE_BOUND('',#162,.T.);
#38=FACE_BOUND('',#165,.T.);
#39=FACE_BOUND('',#172,.T.);
#40=FACE_BOUND('',#175,.T.);
#41=PLANE('',#860);
#42=PLANE('',#861);
#43=PLANE('',#862);
#44=PLANE('',#863);
#45=PLANE('',#864);
#46=PLANE('',#865);
#47=PLANE('',#866);
#48=PLANE('',#867);
#49=PLANE('',#879);
#50=PLANE('',#880);
#51=PLANE('',#881);
#52=PLANE('',#882);
#53=PLANE('',#883);
#54=PLANE('',#884);
#55=PLANE('',#885);
#56=PLANE('',#896);
#57=PLANE('',#897);
#58=PLANE('',#898);
#59=PLANE('',#905);
#60=PLANE('',#906);
#61=PLANE('',#907);
#62=PLANE('',#908);
#63=PLANE('',#909);
#64=PLANE('',#910);
#65=PLANE('',#917);
#66=PLANE('',#918);
#67=PLANE('',#919);
#68=PLANE('',#920);
#69=PLANE('',#921);
#70=PLANE('',#922);
#71=FACE_OUTER_BOUND('',#114,.T.);
#72=FACE_OUTER_BOUND('',#115,.T.);
#73=FACE_OUTER_BOUND('',#116,.T.);
#74=FACE_OUTER_BOUND('',#118,.T.);
#75=FACE_OUTER_BOUND('',#120,.T.);
#76=FACE_OUTER_BOUND('',#121,.T.);
#77=FACE_OUTER_BOUND('',#122,.T.);
#78=FACE_OUTER_BOUND('',#123,.T.);
#79=FACE_OUTER_BOUND('',#124,.T.);
#80=FACE_OUTER_BOUND('',#125,.T.);
#81=FACE_OUTER_BOUND('',#131,.T.);
#82=FACE_OUTER_BOUND('',#132,.T.);
#83=FACE_OUTER_BOUND('',#133,.T.);
#84=FACE_OUTER_BOUND('',#135,.T.);
#85=FACE_OUTER_BOUND('',#137,.T.);
#86=FACE_OUTER_BOUND('',#138,.T.);
#87=FACE_OUTER_BOUND('',#139,.T.);
#88=FACE_OUTER_BOUND('',#140,.T.);
#89=FACE_OUTER_BOUND('',#141,.T.);
#90=FACE_OUTER_BOUND('',#142,.T.);
#91=FACE_OUTER_BOUND('',#143,.T.);
#92=FACE_OUTER_BOUND('',#144,.T.);
#93=FACE_OUTER_BOUND('',#145,.T.);
#94=FACE_OUTER_BOUND('',#146,.T.);
#95=FACE_OUTER_BOUND('',#147,.T.);
#96=FACE_OUTER_BOUND('',#150,.T.);
#97=FACE_OUTER_BOUND('',#153,.T.);
#98=FACE_OUTER_BOUND('',#159,.T.);
#99=FACE_OUTER_BOUND('',#160,.T.);
#100=FACE_OUTER_BOUND('',#161,.T.);
#101=FACE_OUTER_BOUND('',#163,.T.);
#102=FACE_OUTER_BOUND('',#164,.T.);
#103=FACE_OUTER_BOUND('',#166,.T.);
#104=FACE_OUTER_BOUND('',#167,.T.);
#105=FACE_OUTER_BOUND('',#168,.T.);
#106=FACE_OUTER_BOUND('',#169,.T.);
#107=FACE_OUTER_BOUND('',#170,.T.);
#108=FACE_OUTER_BOUND('',#171,.T.);
#109=FACE_OUTER_BOUND('',#173,.T.);
#110=FACE_OUTER_BOUND('',#174,.T.);
#111=FACE_OUTER_BOUND('',#176,.T.);
#112=FACE_OUTER_BOUND('',#177,.T.);
#113=FACE_OUTER_BOUND('',#178,.T.);
#114=EDGE_LOOP('',(#560,#561,#562,#563));
#115=EDGE_LOOP('',(#564,#565,#566,#567));
#116=EDGE_LOOP('',(#568,#569,#570,#571));
#117=EDGE_LOOP('',(#572));
#118=EDGE_LOOP('',(#573,#574,#575,#576));
#119=EDGE_LOOP('',(#577));
#120=EDGE_LOOP('',(#578,#579,#580,#581,#582,#583,#584,#585));
#121=EDGE_LOOP('',(#586,#587,#588,#589));
#122=EDGE_LOOP('',(#590,#591,#592,#593));
#123=EDGE_LOOP('',(#594,#595,#596,#597));
#124=EDGE_LOOP('',(#598,#599,#600,#601));
#125=EDGE_LOOP('',(#602,#603,#604,#605,#606,#607,#608,#609,#610,#611,#612,
#613));
#126=EDGE_LOOP('',(#614));
#127=EDGE_LOOP('',(#615));
#128=EDGE_LOOP('',(#616));
#129=EDGE_LOOP('',(#617));
#130=EDGE_LOOP('',(#618));
#131=EDGE_LOOP('',(#619,#620,#621,#622));
#132=EDGE_LOOP('',(#623,#624,#625,#626));
#133=EDGE_LOOP('',(#627,#628,#629,#630));
#134=EDGE_LOOP('',(#631));
#135=EDGE_LOOP('',(#632,#633,#634,#635));
#136=EDGE_LOOP('',(#636));
#137=EDGE_LOOP('',(#637,#638,#639,#640,#641,#642,#643,#644));
#138=EDGE_LOOP('',(#645,#646,#647,#648));
#139=EDGE_LOOP('',(#649,#650,#651,#652));
#140=EDGE_LOOP('',(#653,#654,#655,#656));
#141=EDGE_LOOP('',(#657,#658,#659,#660));
#142=EDGE_LOOP('',(#661,#662,#663,#664));
#143=EDGE_LOOP('',(#665,#666,#667,#668));
#144=EDGE_LOOP('',(#669,#670,#671,#672));
#145=EDGE_LOOP('',(#673,#674,#675,#676));
#146=EDGE_LOOP('',(#677,#678,#679,#680));
#147=EDGE_LOOP('',(#681,#682,#683,#684,#685,#686,#687,#688));
#148=EDGE_LOOP('',(#689));
#149=EDGE_LOOP('',(#690));
#150=EDGE_LOOP('',(#691,#692,#693,#694,#695,#696,#697,#698));
#151=EDGE_LOOP('',(#699));
#152=EDGE_LOOP('',(#700));
#153=EDGE_LOOP('',(#701,#702,#703,#704));
#154=EDGE_LOOP('',(#705));
#155=EDGE_LOOP('',(#706));
#156=EDGE_LOOP('',(#707));
#157=EDGE_LOOP('',(#708));
#158=EDGE_LOOP('',(#709));
#159=EDGE_LOOP('',(#710,#711,#712,#713));
#160=EDGE_LOOP('',(#714,#715,#716,#717));
#161=EDGE_LOOP('',(#718,#719,#720,#721,#722));
#162=EDGE_LOOP('',(#723));
#163=EDGE_LOOP('',(#724,#725,#726,#727));
#164=EDGE_LOOP('',(#728,#729,#730,#731,#732));
#165=EDGE_LOOP('',(#733));
#166=EDGE_LOOP('',(#734,#735,#736,#737));
#167=EDGE_LOOP('',(#738,#739,#740,#741));
#168=EDGE_LOOP('',(#742,#743,#744,#745));
#169=EDGE_LOOP('',(#746,#747,#748,#749));
#170=EDGE_LOOP('',(#750,#751,#752,#753));
#171=EDGE_LOOP('',(#754,#755,#756,#757,#758));
#172=EDGE_LOOP('',(#759));
#173=EDGE_LOOP('',(#760,#761,#762,#763));
#174=EDGE_LOOP('',(#764,#765,#766,#767,#768));
#175=EDGE_LOOP('',(#769));
#176=EDGE_LOOP('',(#770,#771,#772,#773));
#177=EDGE_LOOP('',(#774,#775,#776,#777));
#178=EDGE_LOOP('',(#778,#779,#780,#781));
#179=LINE('',#1153,#264);
#180=LINE('',#1159,#265);
#181=LINE('',#1164,#266);
#182=LINE('',#1166,#267);
#183=LINE('',#1168,#268);
#184=LINE('',#1169,#269);
#185=LINE('',#1173,#270);
#186=LINE('',#1175,#271);
#187=LINE('',#1177,#272);
#188=LINE('',#1178,#273);
#189=LINE('',#1180,#274);
#190=LINE('',#1182,#275);
#191=LINE('',#1184,#276);
#192=LINE('',#1186,#277);
#193=LINE('',#1188,#278);
#194=LINE('',#1189,#279);
#195=LINE('',#1192,#280);
#196=LINE('',#1194,#281);
#197=LINE('',#1195,#282);
#198=LINE('',#1197,#283);
#199=LINE('',#1200,#284);
#200=LINE('',#1201,#285);
#201=LINE('',#1204,#286);
#202=LINE('',#1205,#287);
#203=LINE('',#1208,#288);
#204=LINE('',#1210,#289);
#205=LINE('',#1212,#290);
#206=LINE('',#1214,#291);
#207=LINE('',#1216,#292);
#208=LINE('',#1218,#293);
#209=LINE('',#1219,#294);
#210=LINE('',#1234,#295);
#211=LINE('',#1240,#296);
#212=LINE('',#1244,#297);
#213=LINE('',#1246,#298);
#214=LINE('',#1247,#299);
#215=LINE('',#1250,#300);
#216=LINE('',#1252,#301);
#217=LINE('',#1253,#302);
#218=LINE('',#1256,#303);
#219=LINE('',#1258,#304);
#220=LINE('',#1260,#305);
#221=LINE('',#1262,#306);
#222=LINE('',#1263,#307);
#223=LINE('',#1266,#308);
#224=LINE('',#1267,#309);
#225=LINE('',#1269,#310);
#226=LINE('',#1272,#311);
#227=LINE('',#1273,#312);
#228=LINE('',#1275,#313);
#229=LINE('',#1278,#314);
#230=LINE('',#1282,#315);
#231=LINE('',#1286,#316);
#232=LINE('',#1290,#317);
#233=LINE('',#1294,#318);
#234=LINE('',#1297,#319);
#235=LINE('',#1299,#320);
#236=LINE('',#1305,#321);
#237=LINE('',#1310,#322);
#238=LINE('',#1314,#323);
#239=LINE('',#1318,#324);
#240=LINE('',#1320,#325);
#241=LINE('',#1322,#326);
#242=LINE('',#1323,#327);
#243=LINE('',#1326,#328);
#244=LINE('',#1327,#329);
#245=LINE('',#1330,#330);
#246=LINE('',#1332,#331);
#247=LINE('',#1333,#332);
#248=LINE('',#1335,#333);
#249=LINE('',#1337,#334);
#250=LINE('',#1343,#335);
#251=LINE('',#1348,#336);
#252=LINE('',#1352,#337);
#253=LINE('',#1356,#338);
#254=LINE('',#1358,#339);
#255=LINE('',#1360,#340);
#256=LINE('',#1361,#341);
#257=LINE('',#1364,#342);
#258=LINE('',#1365,#343);
#259=LINE('',#1368,#344);
#260=LINE('',#1370,#345);
#261=LINE('',#1371,#346);
#262=LINE('',#1373,#347);
#263=LINE('',#1375,#348);
#264=VECTOR('',#929,1.6);
#265=VECTOR('',#936,1.6);
#266=VECTOR('',#941,10.);
#267=VECTOR('',#942,10.);
#268=VECTOR('',#943,10.);
#269=VECTOR('',#944,10.);
#270=VECTOR('',#947,10.);
#271=VECTOR('',#948,10.);
#272=VECTOR('',#949,10.);
#273=VECTOR('',#950,10.);
#274=VECTOR('',#953,10.);
#275=VECTOR('',#954,10.);
#276=VECTOR('',#955,10.);
#277=VECTOR('',#956,10.);
#278=VECTOR('',#957,10.);
#279=VECTOR('',#958,10.);
#280=VECTOR('',#961,10.);
#281=VECTOR('',#962,10.);
#282=VECTOR('',#963,10.);
#283=VECTOR('',#966,10.);
#284=VECTOR('',#969,10.);
#285=VECTOR('',#970,10.);
#286=VECTOR('',#973,10.);
#287=VECTOR('',#974,10.);
#288=VECTOR('',#977,10.);
#289=VECTOR('',#978,10.);
#290=VECTOR('',#979,10.);
#291=VECTOR('',#980,10.);
#292=VECTOR('',#981,10.);
#293=VECTOR('',#982,10.);
#294=VECTOR('',#983,10.);
#295=VECTOR('',#998,1.6);
#296=VECTOR('',#1005,1.6);
#297=VECTOR('',#1010,10.);
#298=VECTOR('',#1011,10.);
#299=VECTOR('',#1012,10.);
#300=VECTOR('',#1015,10.);
#301=VECTOR('',#1016,10.);
#302=VECTOR('',#1017,10.);
#303=VECTOR('',#1020,10.);
#304=VECTOR('',#1021,10.);
#305=VECTOR('',#1022,10.);
#306=VECTOR('',#1023,10.);
#307=VECTOR('',#1024,10.);
#308=VECTOR('',#1027,10.);
#309=VECTOR('',#1028,10.);
#310=VECTOR('',#1031,10.);
#311=VECTOR('',#1034,10.);
#312=VECTOR('',#1035,10.);
#313=VECTOR('',#1038,10.);
#314=VECTOR('',#1041,2.5);
#315=VECTOR('',#1046,2.5);
#316=VECTOR('',#1051,2.5);
#317=VECTOR('',#1056,4.);
#318=VECTOR('',#1061,2.5);
#319=VECTOR('',#1066,10.);
#320=VECTOR('',#1069,10.);
#321=VECTOR('',#1076,1.75);
#322=VECTOR('',#1081,10.);
#323=VECTOR('',#1084,10.);
#324=VECTOR('',#1089,10.);
#325=VECTOR('',#1090,10.);
#326=VECTOR('',#1091,10.);
#327=VECTOR('',#1092,10.);
#328=VECTOR('',#1095,10.);
#329=VECTOR('',#1096,10.);
#330=VECTOR('',#1099,10.);
#331=VECTOR('',#1100,10.);
#332=VECTOR('',#1101,10.);
#333=VECTOR('',#1104,10.);
#334=VECTOR('',#1107,10.);
#335=VECTOR('',#1114,1.75);
#336=VECTOR('',#1119,10.);
#337=VECTOR('',#1122,10.);
#338=VECTOR('',#1127,10.);
#339=VECTOR('',#1128,10.);
#340=VECTOR('',#1129,10.);
#341=VECTOR('',#1130,10.);
#342=VECTOR('',#1133,10.);
#343=VECTOR('',#1134,10.);
#344=VECTOR('',#1137,10.);
#345=VECTOR('',#1138,10.);
#346=VECTOR('',#1139,10.);
#347=VECTOR('',#1142,10.);
#348=VECTOR('',#1145,10.);
#349=CIRCLE('',#855,1.6);
#350=CIRCLE('',#856,1.6);
#351=CIRCLE('',#858,1.6);
#352=CIRCLE('',#859,1.6);
#353=CIRCLE('',#868,2.5);
#354=CIRCLE('',#869,2.5);
#355=CIRCLE('',#870,2.5);
#356=CIRCLE('',#871,4.);
#357=CIRCLE('',#872,2.5);
#358=CIRCLE('',#874,1.6);
#359=CIRCLE('',#875,1.6);
#360=CIRCLE('',#877,1.6);
#361=CIRCLE('',#878,1.6);
#362=CIRCLE('',#887,2.5);
#363=CIRCLE('',#889,2.5);
#364=CIRCLE('',#891,2.5);
#365=CIRCLE('',#893,4.);
#366=CIRCLE('',#895,2.5);
#367=CIRCLE('',#900,1.75);
#368=CIRCLE('',#901,1.75);
#369=CIRCLE('',#903,7.);
#370=CIRCLE('',#904,7.);
#371=CIRCLE('',#912,1.75);
#372=CIRCLE('',#913,1.75);
#373=CIRCLE('',#915,7.);
#374=CIRCLE('',#916,7.);
#375=VERTEX_POINT('',#1150);
#376=VERTEX_POINT('',#1152);
#377=VERTEX_POINT('',#1156);
#378=VERTEX_POINT('',#1158);
#379=VERTEX_POINT('',#1162);
#380=VERTEX_POINT('',#1163);
#381=VERTEX_POINT('',#1165);
#382=VERTEX_POINT('',#1167);
#383=VERTEX_POINT('',#1171);
#384=VERTEX_POINT('',#1172);
#385=VERTEX_POINT('',#1174);
#386=VERTEX_POINT('',#1176);
#387=VERTEX_POINT('',#1181);
#388=VERTEX_POINT('',#1183);
#389=VERTEX_POINT('',#1185);
#390=VERTEX_POINT('',#1187);
#391=VERTEX_POINT('',#1191);
#392=VERTEX_POINT('',#1193);
#393=VERTEX_POINT('',#1199);
#394=VERTEX_POINT('',#1203);
#395=VERTEX_POINT('',#1207);
#396=VERTEX_POINT('',#1209);
#397=VERTEX_POINT('',#1211);
#398=VERTEX_POINT('',#1213);
#399=VERTEX_POINT('',#1215);
#400=VERTEX_POINT('',#1217);
#401=VERTEX_POINT('',#1220);
#402=VERTEX_POINT('',#1222);
#403=VERTEX_POINT('',#1224);
#404=VERTEX_POINT('',#1226);
#405=VERTEX_POINT('',#1228);
#406=VERTEX_POINT('',#1231);
#407=VERTEX_POINT('',#1233);
#408=VERTEX_POINT('',#1237);
#409=VERTEX_POINT('',#1239);
#410=VERTEX_POINT('',#1243);
#411=VERTEX_POINT('',#1245);
#412=VERTEX_POINT('',#1249);
#413=VERTEX_POINT('',#1251);
#414=VERTEX_POINT('',#1255);
#415=VERTEX_POINT('',#1257);
#416=VERTEX_POINT('',#1259);
#417=VERTEX_POINT('',#1261);
#418=VERTEX_POINT('',#1265);
#419=VERTEX_POINT('',#1271);
#420=VERTEX_POINT('',#1277);
#421=VERTEX_POINT('',#1281);
#422=VERTEX_POINT('',#1285);
#423=VERTEX_POINT('',#1289);
#424=VERTEX_POINT('',#1293);
#425=VERTEX_POINT('',#1302);
#426=VERTEX_POINT('',#1304);
#427=VERTEX_POINT('',#1308);
#428=VERTEX_POINT('',#1309);
#429=VERTEX_POINT('',#1311);
#430=VERTEX_POINT('',#1313);
#431=VERTEX_POINT('',#1317);
#432=VERTEX_POINT('',#1319);
#433=VERTEX_POINT('',#1321);
#434=VERTEX_POINT('',#1325);
#435=VERTEX_POINT('',#1329);
#436=VERTEX_POINT('',#1331);
#437=VERTEX_POINT('',#1340);
#438=VERTEX_POINT('',#1342);
#439=VERTEX_POINT('',#1346);
#440=VERTEX_POINT('',#1347);
#441=VERTEX_POINT('',#1349);
#442=VERTEX_POINT('',#1351);
#443=VERTEX_POINT('',#1355);
#444=VERTEX_POINT('',#1357);
#445=VERTEX_POINT('',#1359);
#446=VERTEX_POINT('',#1363);
#447=VERTEX_POINT('',#1367);
#448=VERTEX_POINT('',#1369);
#449=EDGE_CURVE('',#375,#375,#349,.T.);
#450=EDGE_CURVE('',#375,#376,#179,.T.);
#451=EDGE_CURVE('',#376,#376,#350,.T.);
#452=EDGE_CURVE('',#377,#377,#351,.T.);
#453=EDGE_CURVE('',#377,#378,#180,.T.);
#454=EDGE_CURVE('',#378,#378,#352,.T.);
#455=EDGE_CURVE('',#379,#380,#181,.T.);
#456=EDGE_CURVE('',#381,#379,#182,.T.);
#457=EDGE_CURVE('',#382,#381,#183,.T.);
#458=EDGE_CURVE('',#380,#382,#184,.T.);
#459=EDGE_CURVE('',#383,#384,#185,.T.);
#460=EDGE_CURVE('',#385,#383,#186,.T.);
#461=EDGE_CURVE('',#386,#385,#187,.T.);
#462=EDGE_CURVE('',#384,#386,#188,.T.);
#463=EDGE_CURVE('',#381,#386,#189,.T.);
#464=EDGE_CURVE('',#385,#387,#190,.T.);
#465=EDGE_CURVE('',#387,#388,#191,.T.);
#466=EDGE_CURVE('',#389,#388,#192,.T.);
#467=EDGE_CURVE('',#390,#389,#193,.T.);
#468=EDGE_CURVE('',#390,#382,#194,.T.);
#469=EDGE_CURVE('',#391,#384,#195,.T.);
#470=EDGE_CURVE('',#392,#391,#196,.T.);
#471=EDGE_CURVE('',#392,#383,#197,.T.);
#472=EDGE_CURVE('',#387,#392,#198,.T.);
#473=EDGE_CURVE('',#393,#390,#199,.T.);
#474=EDGE_CURVE('',#380,#393,#200,.T.);
#475=EDGE_CURVE('',#394,#393,#201,.T.);
#476=EDGE_CURVE('',#379,#394,#202,.T.);
#477=EDGE_CURVE('',#395,#394,#203,.T.);
#478=EDGE_CURVE('',#395,#396,#204,.T.);
#479=EDGE_CURVE('',#396,#397,#205,.T.);
#480=EDGE_CURVE('',#398,#397,#206,.T.);
#481=EDGE_CURVE('',#398,#399,#207,.T.);
#482=EDGE_CURVE('',#399,#400,#208,.T.);
#483=EDGE_CURVE('',#391,#400,#209,.T.);
#484=EDGE_CURVE('',#401,#401,#353,.T.);
#485=EDGE_CURVE('',#402,#402,#354,.T.);
#486=EDGE_CURVE('',#403,#403,#355,.T.);
#487=EDGE_CURVE('',#404,#404,#356,.T.);
#488=EDGE_CURVE('',#405,#405,#357,.T.);
#489=EDGE_CURVE('',#406,#406,#358,.T.);
#490=EDGE_CURVE('',#406,#407,#210,.T.);
#491=EDGE_CURVE('',#407,#407,#359,.T.);
#492=EDGE_CURVE('',#408,#408,#360,.T.);
#493=EDGE_CURVE('',#408,#409,#211,.T.);
#494=EDGE_CURVE('',#409,#409,#361,.T.);
#495=EDGE_CURVE('',#397,#410,#212,.T.);
#496=EDGE_CURVE('',#411,#396,#213,.T.);
#497=EDGE_CURVE('',#410,#411,#214,.T.);
#498=EDGE_CURVE('',#412,#398,#215,.T.);
#499=EDGE_CURVE('',#413,#412,#216,.T.);
#500=EDGE_CURVE('',#399,#413,#217,.T.);
#501=EDGE_CURVE('',#414,#410,#218,.T.);
#502=EDGE_CURVE('',#414,#415,#219,.T.);
#503=EDGE_CURVE('',#416,#415,#220,.T.);
#504=EDGE_CURVE('',#417,#416,#221,.T.);
#505=EDGE_CURVE('',#412,#417,#222,.T.);
#506=EDGE_CURVE('',#411,#418,#223,.T.);
#507=EDGE_CURVE('',#414,#418,#224,.T.);
#508=EDGE_CURVE('',#418,#395,#225,.T.);
#509=EDGE_CURVE('',#419,#413,#226,.T.);
#510=EDGE_CURVE('',#400,#419,#227,.T.);
#511=EDGE_CURVE('',#419,#417,#228,.T.);
#512=EDGE_CURVE('',#401,#420,#229,.T.);
#513=EDGE_CURVE('',#420,#420,#362,.T.);
#514=EDGE_CURVE('',#402,#421,#230,.T.);
#515=EDGE_CURVE('',#421,#421,#363,.T.);
#516=EDGE_CURVE('',#403,#422,#231,.T.);
#517=EDGE_CURVE('',#422,#422,#364,.T.);
#518=EDGE_CURVE('',#404,#423,#232,.T.);
#519=EDGE_CURVE('',#423,#423,#365,.T.);
#520=EDGE_CURVE('',#405,#424,#233,.T.);
#521=EDGE_CURVE('',#424,#424,#366,.T.);
#522=EDGE_CURVE('',#388,#416,#234,.T.);
#523=EDGE_CURVE('',#415,#389,#235,.T.);
#524=EDGE_CURVE('',#425,#425,#367,.T.);
#525=EDGE_CURVE('',#425,#426,#236,.T.);
#526=EDGE_CURVE('',#426,#426,#368,.T.);
#527=EDGE_CURVE('',#427,#428,#237,.T.);
#528=EDGE_CURVE('',#429,#427,#369,.T.);
#529=EDGE_CURVE('',#430,#429,#238,.T.);
#530=EDGE_CURVE('',#428,#430,#370,.T.);
#531=EDGE_CURVE('',#430,#431,#239,.T.);
#532=EDGE_CURVE('',#431,#432,#240,.T.);
#533=EDGE_CURVE('',#432,#433,#241,.T.);
#534=EDGE_CURVE('',#433,#428,#242,.T.);
#535=EDGE_CURVE('',#434,#429,#243,.T.);
#536=EDGE_CURVE('',#434,#431,#244,.T.);
#537=EDGE_CURVE('',#427,#435,#245,.T.);
#538=EDGE_CURVE('',#435,#436,#246,.T.);
#539=EDGE_CURVE('',#436,#434,#247,.T.);
#540=EDGE_CURVE('',#432,#436,#248,.T.);
#541=EDGE_CURVE('',#435,#433,#249,.T.);
#542=EDGE_CURVE('',#437,#437,#371,.T.);
#543=EDGE_CURVE('',#437,#438,#250,.T.);
#544=EDGE_CURVE('',#438,#438,#372,.T.);
#545=EDGE_CURVE('',#439,#440,#251,.T.);
#546=EDGE_CURVE('',#441,#439,#373,.T.);
#547=EDGE_CURVE('',#442,#441,#252,.T.);
#548=EDGE_CURVE('',#440,#442,#374,.T.);
#549=EDGE_CURVE('',#442,#443,#253,.T.);
#550=EDGE_CURVE('',#443,#444,#254,.T.);
#551=EDGE_CURVE('',#444,#445,#255,.T.);
#552=EDGE_CURVE('',#445,#440,#256,.T.);
#553=EDGE_CURVE('',#446,#441,#257,.T.);
#554=EDGE_CURVE('',#446,#443,#258,.T.);
#555=EDGE_CURVE('',#439,#447,#259,.T.);
#556=EDGE_CURVE('',#447,#448,#260,.T.);
#557=EDGE_CURVE('',#448,#446,#261,.T.);
#558=EDGE_CURVE('',#444,#448,#262,.T.);
#559=EDGE_CURVE('',#447,#445,#263,.T.);
#560=ORIENTED_EDGE('',*,*,#449,.F.);
#561=ORIENTED_EDGE('',*,*,#450,.T.);
#562=ORIENTED_EDGE('',*,*,#451,.F.);
#563=ORIENTED_EDGE('',*,*,#450,.F.);
#564=ORIENTED_EDGE('',*,*,#452,.F.);
#565=ORIENTED_EDGE('',*,*,#453,.T.);
#566=ORIENTED_EDGE('',*,*,#454,.F.);
#567=ORIENTED_EDGE('',*,*,#453,.F.);
#568=ORIENTED_EDGE('',*,*,#455,.F.);
#569=ORIENTED_EDGE('',*,*,#456,.F.);
#570=ORIENTED_EDGE('',*,*,#457,.F.);
#571=ORIENTED_EDGE('',*,*,#458,.F.);
#572=ORIENTED_EDGE('',*,*,#454,.T.);
#573=ORIENTED_EDGE('',*,*,#459,.F.);
#574=ORIENTED_EDGE('',*,*,#460,.F.);
#575=ORIENTED_EDGE('',*,*,#461,.F.);
#576=ORIENTED_EDGE('',*,*,#462,.F.);
#577=ORIENTED_EDGE('',*,*,#449,.T.);
#578=ORIENTED_EDGE('',*,*,#457,.T.);
#579=ORIENTED_EDGE('',*,*,#463,.T.);
#580=ORIENTED_EDGE('',*,*,#461,.T.);
#581=ORIENTED_EDGE('',*,*,#464,.T.);
#582=ORIENTED_EDGE('',*,*,#465,.T.);
#583=ORIENTED_EDGE('',*,*,#466,.F.);
#584=ORIENTED_EDGE('',*,*,#467,.F.);
#585=ORIENTED_EDGE('',*,*,#468,.T.);
#586=ORIENTED_EDGE('',*,*,#459,.T.);
#587=ORIENTED_EDGE('',*,*,#469,.F.);
#588=ORIENTED_EDGE('',*,*,#470,.F.);
#589=ORIENTED_EDGE('',*,*,#471,.T.);
#590=ORIENTED_EDGE('',*,*,#460,.T.);
#591=ORIENTED_EDGE('',*,*,#471,.F.);
#592=ORIENTED_EDGE('',*,*,#472,.F.);
#593=ORIENTED_EDGE('',*,*,#464,.F.);
#594=ORIENTED_EDGE('',*,*,#458,.T.);
#595=ORIENTED_EDGE('',*,*,#468,.F.);
#596=ORIENTED_EDGE('',*,*,#473,.F.);
#597=ORIENTED_EDGE('',*,*,#474,.F.);
#598=ORIENTED_EDGE('',*,*,#455,.T.);
#599=ORIENTED_EDGE('',*,*,#474,.T.);
#600=ORIENTED_EDGE('',*,*,#475,.F.);
#601=ORIENTED_EDGE('',*,*,#476,.F.);
#602=ORIENTED_EDGE('',*,*,#476,.T.);
#603=ORIENTED_EDGE('',*,*,#477,.F.);
#604=ORIENTED_EDGE('',*,*,#478,.T.);
#605=ORIENTED_EDGE('',*,*,#479,.T.);
#606=ORIENTED_EDGE('',*,*,#480,.F.);
#607=ORIENTED_EDGE('',*,*,#481,.T.);
#608=ORIENTED_EDGE('',*,*,#482,.T.);
#609=ORIENTED_EDGE('',*,*,#483,.F.);
#610=ORIENTED_EDGE('',*,*,#469,.T.);
#611=ORIENTED_EDGE('',*,*,#462,.T.);
#612=ORIENTED_EDGE('',*,*,#463,.F.);
#613=ORIENTED_EDGE('',*,*,#456,.T.);
#614=ORIENTED_EDGE('',*,*,#484,.T.);
#615=ORIENTED_EDGE('',*,*,#485,.T.);
#616=ORIENTED_EDGE('',*,*,#486,.T.);
#617=ORIENTED_EDGE('',*,*,#487,.T.);
#618=ORIENTED_EDGE('',*,*,#488,.T.);
#619=ORIENTED_EDGE('',*,*,#489,.F.);
#620=ORIENTED_EDGE('',*,*,#490,.T.);
#621=ORIENTED_EDGE('',*,*,#491,.F.);
#622=ORIENTED_EDGE('',*,*,#490,.F.);
#623=ORIENTED_EDGE('',*,*,#492,.F.);
#624=ORIENTED_EDGE('',*,*,#493,.T.);
#625=ORIENTED_EDGE('',*,*,#494,.F.);
#626=ORIENTED_EDGE('',*,*,#493,.F.);
#627=ORIENTED_EDGE('',*,*,#495,.F.);
#628=ORIENTED_EDGE('',*,*,#479,.F.);
#629=ORIENTED_EDGE('',*,*,#496,.F.);
#630=ORIENTED_EDGE('',*,*,#497,.F.);
#631=ORIENTED_EDGE('',*,*,#494,.T.);
#632=ORIENTED_EDGE('',*,*,#498,.F.);
#633=ORIENTED_EDGE('',*,*,#499,.F.);
#634=ORIENTED_EDGE('',*,*,#500,.F.);
#635=ORIENTED_EDGE('',*,*,#481,.F.);
#636=ORIENTED_EDGE('',*,*,#489,.T.);
#637=ORIENTED_EDGE('',*,*,#498,.T.);
#638=ORIENTED_EDGE('',*,*,#480,.T.);
#639=ORIENTED_EDGE('',*,*,#495,.T.);
#640=ORIENTED_EDGE('',*,*,#501,.F.);
#641=ORIENTED_EDGE('',*,*,#502,.T.);
#642=ORIENTED_EDGE('',*,*,#503,.F.);
#643=ORIENTED_EDGE('',*,*,#504,.F.);
#644=ORIENTED_EDGE('',*,*,#505,.F.);
#645=ORIENTED_EDGE('',*,*,#497,.T.);
#646=ORIENTED_EDGE('',*,*,#506,.T.);
#647=ORIENTED_EDGE('',*,*,#507,.F.);
#648=ORIENTED_EDGE('',*,*,#501,.T.);
#649=ORIENTED_EDGE('',*,*,#496,.T.);
#650=ORIENTED_EDGE('',*,*,#478,.F.);
#651=ORIENTED_EDGE('',*,*,#508,.F.);
#652=ORIENTED_EDGE('',*,*,#506,.F.);
#653=ORIENTED_EDGE('',*,*,#500,.T.);
#654=ORIENTED_EDGE('',*,*,#509,.F.);
#655=ORIENTED_EDGE('',*,*,#510,.F.);
#656=ORIENTED_EDGE('',*,*,#482,.F.);
#657=ORIENTED_EDGE('',*,*,#499,.T.);
#658=ORIENTED_EDGE('',*,*,#505,.T.);
#659=ORIENTED_EDGE('',*,*,#511,.F.);
#660=ORIENTED_EDGE('',*,*,#509,.T.);
#661=ORIENTED_EDGE('',*,*,#484,.F.);
#662=ORIENTED_EDGE('',*,*,#512,.T.);
#663=ORIENTED_EDGE('',*,*,#513,.F.);
#664=ORIENTED_EDGE('',*,*,#512,.F.);
#665=ORIENTED_EDGE('',*,*,#485,.F.);
#666=ORIENTED_EDGE('',*,*,#514,.T.);
#667=ORIENTED_EDGE('',*,*,#515,.F.);
#668=ORIENTED_EDGE('',*,*,#514,.F.);
#669=ORIENTED_EDGE('',*,*,#486,.F.);
#670=ORIENTED_EDGE('',*,*,#516,.T.);
#671=ORIENTED_EDGE('',*,*,#517,.F.);
#672=ORIENTED_EDGE('',*,*,#516,.F.);
#673=ORIENTED_EDGE('',*,*,#487,.F.);
#674=ORIENTED_EDGE('',*,*,#518,.T.);
#675=ORIENTED_EDGE('',*,*,#519,.F.);
#676=ORIENTED_EDGE('',*,*,#518,.F.);
#677=ORIENTED_EDGE('',*,*,#488,.F.);
#678=ORIENTED_EDGE('',*,*,#520,.T.);
#679=ORIENTED_EDGE('',*,*,#521,.F.);
#680=ORIENTED_EDGE('',*,*,#520,.F.);
#681=ORIENTED_EDGE('',*,*,#483,.T.);
#682=ORIENTED_EDGE('',*,*,#510,.T.);
#683=ORIENTED_EDGE('',*,*,#511,.T.);
#684=ORIENTED_EDGE('',*,*,#504,.T.);
#685=ORIENTED_EDGE('',*,*,#522,.F.);
#686=ORIENTED_EDGE('',*,*,#465,.F.);
#687=ORIENTED_EDGE('',*,*,#472,.T.);
#688=ORIENTED_EDGE('',*,*,#470,.T.);
#689=ORIENTED_EDGE('',*,*,#451,.T.);
#690=ORIENTED_EDGE('',*,*,#491,.T.);
#691=ORIENTED_EDGE('',*,*,#477,.T.);
#692=ORIENTED_EDGE('',*,*,#475,.T.);
#693=ORIENTED_EDGE('',*,*,#473,.T.);
#694=ORIENTED_EDGE('',*,*,#467,.T.);
#695=ORIENTED_EDGE('',*,*,#523,.F.);
#696=ORIENTED_EDGE('',*,*,#502,.F.);
#697=ORIENTED_EDGE('',*,*,#507,.T.);
#698=ORIENTED_EDGE('',*,*,#508,.T.);
#699=ORIENTED_EDGE('',*,*,#452,.T.);
#700=ORIENTED_EDGE('',*,*,#492,.T.);
#701=ORIENTED_EDGE('',*,*,#503,.T.);
#702=ORIENTED_EDGE('',*,*,#523,.T.);
#703=ORIENTED_EDGE('',*,*,#466,.T.);
#704=ORIENTED_EDGE('',*,*,#522,.T.);
#705=ORIENTED_EDGE('',*,*,#521,.T.);
#706=ORIENTED_EDGE('',*,*,#519,.T.);
#707=ORIENTED_EDGE('',*,*,#517,.T.);
#708=ORIENTED_EDGE('',*,*,#515,.T.);
#709=ORIENTED_EDGE('',*,*,#513,.T.);
#710=ORIENTED_EDGE('',*,*,#524,.F.);
#711=ORIENTED_EDGE('',*,*,#525,.T.);
#712=ORIENTED_EDGE('',*,*,#526,.F.);
#713=ORIENTED_EDGE('',*,*,#525,.F.);
#714=ORIENTED_EDGE('',*,*,#527,.F.);
#715=ORIENTED_EDGE('',*,*,#528,.F.);
#716=ORIENTED_EDGE('',*,*,#529,.F.);
#717=ORIENTED_EDGE('',*,*,#530,.F.);
#718=ORIENTED_EDGE('',*,*,#531,.T.);
#719=ORIENTED_EDGE('',*,*,#532,.T.);
#720=ORIENTED_EDGE('',*,*,#533,.T.);
#721=ORIENTED_EDGE('',*,*,#534,.T.);
#722=ORIENTED_EDGE('',*,*,#530,.T.);
#723=ORIENTED_EDGE('',*,*,#526,.T.);
#724=ORIENTED_EDGE('',*,*,#529,.T.);
#725=ORIENTED_EDGE('',*,*,#535,.F.);
#726=ORIENTED_EDGE('',*,*,#536,.T.);
#727=ORIENTED_EDGE('',*,*,#531,.F.);
#728=ORIENTED_EDGE('',*,*,#537,.T.);
#729=ORIENTED_EDGE('',*,*,#538,.T.);
#730=ORIENTED_EDGE('',*,*,#539,.T.);
#731=ORIENTED_EDGE('',*,*,#535,.T.);
#732=ORIENTED_EDGE('',*,*,#528,.T.);
#733=ORIENTED_EDGE('',*,*,#524,.T.);
#734=ORIENTED_EDGE('',*,*,#540,.F.);
#735=ORIENTED_EDGE('',*,*,#532,.F.);
#736=ORIENTED_EDGE('',*,*,#536,.F.);
#737=ORIENTED_EDGE('',*,*,#539,.F.);
#738=ORIENTED_EDGE('',*,*,#527,.T.);
#739=ORIENTED_EDGE('',*,*,#534,.F.);
#740=ORIENTED_EDGE('',*,*,#541,.F.);
#741=ORIENTED_EDGE('',*,*,#537,.F.);
#742=ORIENTED_EDGE('',*,*,#541,.T.);
#743=ORIENTED_EDGE('',*,*,#533,.F.);
#744=ORIENTED_EDGE('',*,*,#540,.T.);
#745=ORIENTED_EDGE('',*,*,#538,.F.);
#746=ORIENTED_EDGE('',*,*,#542,.F.);
#747=ORIENTED_EDGE('',*,*,#543,.T.);
#748=ORIENTED_EDGE('',*,*,#544,.F.);
#749=ORIENTED_EDGE('',*,*,#543,.F.);
#750=ORIENTED_EDGE('',*,*,#545,.F.);
#751=ORIENTED_EDGE('',*,*,#546,.F.);
#752=ORIENTED_EDGE('',*,*,#547,.F.);
#753=ORIENTED_EDGE('',*,*,#548,.F.);
#754=ORIENTED_EDGE('',*,*,#549,.T.);
#755=ORIENTED_EDGE('',*,*,#550,.T.);
#756=ORIENTED_EDGE('',*,*,#551,.T.);
#757=ORIENTED_EDGE('',*,*,#552,.T.);
#758=ORIENTED_EDGE('',*,*,#548,.T.);
#759=ORIENTED_EDGE('',*,*,#544,.T.);
#760=ORIENTED_EDGE('',*,*,#547,.T.);
#761=ORIENTED_EDGE('',*,*,#553,.F.);
#762=ORIENTED_EDGE('',*,*,#554,.T.);
#763=ORIENTED_EDGE('',*,*,#549,.F.);
#764=ORIENTED_EDGE('',*,*,#555,.T.);
#765=ORIENTED_EDGE('',*,*,#556,.T.);
#766=ORIENTED_EDGE('',*,*,#557,.T.);
#767=ORIENTED_EDGE('',*,*,#553,.T.);
#768=ORIENTED_EDGE('',*,*,#546,.T.);
#769=ORIENTED_EDGE('',*,*,#542,.T.);
#770=ORIENTED_EDGE('',*,*,#558,.F.);
#771=ORIENTED_EDGE('',*,*,#550,.F.);
#772=ORIENTED_EDGE('',*,*,#554,.F.);
#773=ORIENTED_EDGE('',*,*,#557,.F.);
#774=ORIENTED_EDGE('',*,*,#545,.T.);
#775=ORIENTED_EDGE('',*,*,#552,.F.);
#776=ORIENTED_EDGE('',*,*,#559,.F.);
#777=ORIENTED_EDGE('',*,*,#555,.F.);
#778=ORIENTED_EDGE('',*,*,#559,.T.);
#779=ORIENTED_EDGE('',*,*,#551,.F.);
#780=ORIENTED_EDGE('',*,*,#558,.T.);
#781=ORIENTED_EDGE('',*,*,#556,.F.);
#782=CYLINDRICAL_SURFACE('',#854,1.6);
#783=CYLINDRICAL_SURFACE('',#857,1.6);
#784=CYLINDRICAL_SURFACE('',#873,1.6);
#785=CYLINDRICAL_SURFACE('',#876,1.6);
#786=CYLINDRICAL_SURFACE('',#886,2.5);
#787=CYLINDRICAL_SURFACE('',#888,2.5);
#788=CYLINDRICAL_SURFACE('',#890,2.5);
#789=CYLINDRICAL_SURFACE('',#892,4.);
#790=CYLINDRICAL_SURFACE('',#894,2.5);
#791=CYLINDRICAL_SURFACE('',#899,1.75);
#792=CYLINDRICAL_SURFACE('',#902,7.);
#793=CYLINDRICAL_SURFACE('',#911,1.75);
#794=CYLINDRICAL_SURFACE('',#914,7.);
#795=ADVANCED_FACE('',(#71),#782,.F.);
#796=ADVANCED_FACE('',(#72),#783,.F.);
#797=ADVANCED_FACE('',(#73,#19),#41,.F.);
#798=ADVANCED_FACE('',(#74,#20),#42,.F.);
#799=ADVANCED_FACE('',(#75),#43,.T.);
#800=ADVANCED_FACE('',(#76),#44,.T.);
#801=ADVANCED_FACE('',(#77),#45,.T.);
#802=ADVANCED_FACE('',(#78),#46,.T.);
#803=ADVANCED_FACE('',(#79),#47,.T.);
#804=ADVANCED_FACE('',(#80,#21,#22,#23,#24,#25),#48,.F.);
#805=ADVANCED_FACE('',(#81),#784,.F.);
#806=ADVANCED_FACE('',(#82),#785,.F.);
#807=ADVANCED_FACE('',(#83,#26),#49,.F.);
#808=ADVANCED_FACE('',(#84,#27),#50,.F.);
#809=ADVANCED_FACE('',(#85),#51,.T.);
#810=ADVANCED_FACE('',(#86),#52,.T.);
#811=ADVANCED_FACE('',(#87),#53,.T.);
#812=ADVANCED_FACE('',(#88),#54,.T.);
#813=ADVANCED_FACE('',(#89),#55,.T.);
#814=ADVANCED_FACE('',(#90),#786,.F.);
#815=ADVANCED_FACE('',(#91),#787,.F.);
#816=ADVANCED_FACE('',(#92),#788,.F.);
#817=ADVANCED_FACE('',(#93),#789,.F.);
#818=ADVANCED_FACE('',(#94),#790,.F.);
#819=ADVANCED_FACE('',(#95,#28,#29),#56,.T.);
#820=ADVANCED_FACE('',(#96,#30,#31),#57,.T.);
#821=ADVANCED_FACE('',(#97,#32,#33,#34,#35,#36),#58,.T.);
#822=ADVANCED_FACE('',(#98),#791,.F.);
#823=ADVANCED_FACE('',(#99),#792,.T.);
#824=ADVANCED_FACE('',(#100,#37),#59,.T.);
#825=ADVANCED_FACE('',(#101),#60,.T.);
#826=ADVANCED_FACE('',(#102,#38),#61,.T.);
#827=ADVANCED_FACE('',(#103),#62,.T.);
#828=ADVANCED_FACE('',(#104),#63,.T.);
#829=ADVANCED_FACE('',(#105),#64,.T.);
#830=ADVANCED_FACE('',(#106),#793,.F.);
#831=ADVANCED_FACE('',(#107),#794,.T.);
#832=ADVANCED_FACE('',(#108,#39),#65,.T.);
#833=ADVANCED_FACE('',(#109),#66,.T.);
#834=ADVANCED_FACE('',(#110,#40),#67,.T.);
#835=ADVANCED_FACE('',(#111),#68,.T.);
#836=ADVANCED_FACE('',(#112),#69,.T.);
#837=ADVANCED_FACE('',(#113),#70,.T.);
#838=CLOSED_SHELL('',(#795,#796,#797,#798,#799,#800,#801,#802,#803,#804,
#805,#806,#807,#808,#809,#810,#811,#812,#813,#814,#815,#816,#817,#818,#819,
#820,#821));
#839=CLOSED_SHELL('',(#822,#823,#824,#825,#826,#827,#828,#829));
#840=CLOSED_SHELL('',(#830,#831,#832,#833,#834,#835,#836,#837));
#841=DERIVED_UNIT_ELEMENT(#843,1.);
#842=DERIVED_UNIT_ELEMENT(#1382,-3.);
#843=(
MASS_UNIT()
NAMED_UNIT(*)
SI_UNIT(.KILO.,.GRAM.)
);
#844=DERIVED_UNIT((#841,#842));
#845=MEASURE_REPRESENTATION_ITEM('density measure',
POSITIVE_RATIO_MEASURE(7850.),#844);
#846=PROPERTY_DEFINITION_REPRESENTATION(#851,#848);
#847=PROPERTY_DEFINITION_REPRESENTATION(#852,#849);
#848=REPRESENTATION('material name',(#850),#1379);
#849=REPRESENTATION('density',(#845),#1379);
#850=DESCRIPTIVE_REPRESENTATION_ITEM('Steel','Steel');
#851=PROPERTY_DEFINITION('material property','material name',#1389);
#852=PROPERTY_DEFINITION('material property','density of part',#1389);
#853=AXIS2_PLACEMENT_3D('',#1148,#923,#924);
#854=AXIS2_PLACEMENT_3D('',#1149,#925,#926);
#855=AXIS2_PLACEMENT_3D('',#1151,#927,#928);
#856=AXIS2_PLACEMENT_3D('',#1154,#930,#931);
#857=AXIS2_PLACEMENT_3D('',#1155,#932,#933);
#858=AXIS2_PLACEMENT_3D('',#1157,#934,#935);
#859=AXIS2_PLACEMENT_3D('',#1160,#937,#938);
#860=AXIS2_PLACEMENT_3D('',#1161,#939,#940);
#861=AXIS2_PLACEMENT_3D('',#1170,#945,#946);
#862=AXIS2_PLACEMENT_3D('',#1179,#951,#952);
#863=AXIS2_PLACEMENT_3D('',#1190,#959,#960);
#864=AXIS2_PLACEMENT_3D('',#1196,#964,#965);
#865=AXIS2_PLACEMENT_3D('',#1198,#967,#968);
#866=AXIS2_PLACEMENT_3D('',#1202,#971,#972);
#867=AXIS2_PLACEMENT_3D('',#1206,#975,#976);
#868=AXIS2_PLACEMENT_3D('',#1221,#984,#985);
#869=AXIS2_PLACEMENT_3D('',#1223,#986,#987);
#870=AXIS2_PLACEMENT_3D('',#1225,#988,#989);
#871=AXIS2_PLACEMENT_3D('',#1227,#990,#991);
#872=AXIS2_PLACEMENT_3D('',#1229,#992,#993);
#873=AXIS2_PLACEMENT_3D('',#1230,#994,#995);
#874=AXIS2_PLACEMENT_3D('',#1232,#996,#997);
#875=AXIS2_PLACEMENT_3D('',#1235,#999,#1000);
#876=AXIS2_PLACEMENT_3D('',#1236,#1001,#1002);
#877=AXIS2_PLACEMENT_3D('',#1238,#1003,#1004);
#878=AXIS2_PLACEMENT_3D('',#1241,#1006,#1007);
#879=AXIS2_PLACEMENT_3D('',#1242,#1008,#1009);
#880=AXIS2_PLACEMENT_3D('',#1248,#1013,#1014);
#881=AXIS2_PLACEMENT_3D('',#1254,#1018,#1019);
#882=AXIS2_PLACEMENT_3D('',#1264,#1025,#1026);
#883=AXIS2_PLACEMENT_3D('',#1268,#1029,#1030);
#884=AXIS2_PLACEMENT_3D('',#1270,#1032,#1033);
#885=AXIS2_PLACEMENT_3D('',#1274,#1036,#1037);
#886=AXIS2_PLACEMENT_3D('',#1276,#1039,#1040);
#887=AXIS2_PLACEMENT_3D('',#1279,#1042,#1043);
#888=AXIS2_PLACEMENT_3D('',#1280,#1044,#1045);
#889=AXIS2_PLACEMENT_3D('',#1283,#1047,#1048);
#890=AXIS2_PLACEMENT_3D('',#1284,#1049,#1050);
#891=AXIS2_PLACEMENT_3D('',#1287,#1052,#1053);
#892=AXIS2_PLACEMENT_3D('',#1288,#1054,#1055);
#893=AXIS2_PLACEMENT_3D('',#1291,#1057,#1058);
#894=AXIS2_PLACEMENT_3D('',#1292,#1059,#1060);
#895=AXIS2_PLACEMENT_3D('',#1295,#1062,#1063);
#896=AXIS2_PLACEMENT_3D('',#1296,#1064,#1065);
#897=AXIS2_PLACEMENT_3D('',#1298,#1067,#1068);
#898=AXIS2_PLACEMENT_3D('',#1300,#1070,#1071);
#899=AXIS2_PLACEMENT_3D('',#1301,#1072,#1073);
#900=AXIS2_PLACEMENT_3D('',#1303,#1074,#1075);
#901=AXIS2_PLACEMENT_3D('',#1306,#1077,#1078);
#902=AXIS2_PLACEMENT_3D('',#1307,#1079,#1080);
#903=AXIS2_PLACEMENT_3D('',#1312,#1082,#1083);
#904=AXIS2_PLACEMENT_3D('',#1315,#1085,#1086);
#905=AXIS2_PLACEMENT_3D('',#1316,#1087,#1088);
#906=AXIS2_PLACEMENT_3D('',#1324,#1093,#1094);
#907=AXIS2_PLACEMENT_3D('',#1328,#1097,#1098);
#908=AXIS2_PLACEMENT_3D('',#1334,#1102,#1103);
#909=AXIS2_PLACEMENT_3D('',#1336,#1105,#1106);
#910=AXIS2_PLACEMENT_3D('',#1338,#1108,#1109);
#911=AXIS2_PLACEMENT_3D('',#1339,#1110,#1111);
#912=AXIS2_PLACEMENT_3D('',#1341,#1112,#1113);
#913=AXIS2_PLACEMENT_3D('',#1344,#1115,#1116);
#914=AXIS2_PLACEMENT_3D('',#1345,#1117,#1118);
#915=AXIS2_PLACEMENT_3D('',#1350,#1120,#1121);
#916=AXIS2_PLACEMENT_3D('',#1353,#1123,#1124);
#917=AXIS2_PLACEMENT_3D('',#1354,#1125,#1126);
#918=AXIS2_PLACEMENT_3D('',#1362,#1131,#1132);
#919=AXIS2_PLACEMENT_3D('',#1366,#1135,#1136);
#920=AXIS2_PLACEMENT_3D('',#1372,#1140,#1141);
#921=AXIS2_PLACEMENT_3D('',#1374,#1143,#1144);
#922=AXIS2_PLACEMENT_3D('',#1376,#1146,#1147);
#923=DIRECTION('axis',(0.,0.,1.));
#924=DIRECTION('refdir',(1.,0.,0.));
#925=DIRECTION('center_axis',(0.,1.,0.));
#926=DIRECTION('ref_axis',(1.,0.,0.));
#927=DIRECTION('center_axis',(0.,1.,0.));
#928=DIRECTION('ref_axis',(1.,0.,0.));
#929=DIRECTION('',(0.,1.,0.));
#930=DIRECTION('center_axis',(0.,-1.,0.));
#931=DIRECTION('ref_axis',(1.,0.,0.));
#932=DIRECTION('center_axis',(0.,1.,0.));
#933=DIRECTION('ref_axis',(1.,0.,0.));
#934=DIRECTION('center_axis',(0.,1.,0.));
#935=DIRECTION('ref_axis',(1.,0.,0.));
#936=DIRECTION('',(0.,1.,0.));
#937=DIRECTION('center_axis',(0.,-1.,0.));
#938=DIRECTION('ref_axis',(1.,0.,0.));
#939=DIRECTION('center_axis',(0.,-1.,0.));
#940=DIRECTION('ref_axis',(0.,0.,-1.));
#941=DIRECTION('',(0.,0.,-1.));
#942=DIRECTION('',(-1.,0.,0.));
#943=DIRECTION('',(0.,0.,1.));
#944=DIRECTION('',(1.,0.,0.));
#945=DIRECTION('center_axis',(0.,1.,0.));
#946=DIRECTION('ref_axis',(0.,0.,1.));
#947=DIRECTION('',(0.,0.,1.));
#948=DIRECTION('',(-1.,0.,0.));
#949=DIRECTION('',(0.,0.,-1.));
#950=DIRECTION('',(1.,0.,0.));
#951=DIRECTION('center_axis',(1.,0.,0.));
#952=DIRECTION('ref_axis',(0.,1.,0.));
#953=DIRECTION('',(0.,1.,0.));
#954=DIRECTION('',(0.,1.,0.));
#955=DIRECTION('',(0.,0.,1.));
#956=DIRECTION('',(0.,1.,0.));
#957=DIRECTION('',(0.,0.,1.));
#958=DIRECTION('',(0.,1.,0.));
#959=DIRECTION('center_axis',(-1.,0.,0.));
#960=DIRECTION('ref_axis',(0.,0.,1.));
#961=DIRECTION('',(0.,-1.,0.));
#962=DIRECTION('',(0.,0.,1.));
#963=DIRECTION('',(0.,-1.,0.));
#964=DIRECTION('center_axis',(0.,0.,-1.));
#965=DIRECTION('ref_axis',(-1.,0.,0.));
#966=DIRECTION('',(-1.,0.,0.));
#967=DIRECTION('center_axis',(0.,0.,-1.));
#968=DIRECTION('ref_axis',(-1.,0.,0.));
#969=DIRECTION('',(1.,0.,0.));
#970=DIRECTION('',(0.,-1.,0.));
#971=DIRECTION('center_axis',(-1.,0.,0.));
#972=DIRECTION('ref_axis',(0.,0.,1.));
#973=DIRECTION('',(0.,0.,-1.));
#974=DIRECTION('',(0.,-1.,0.));
#975=DIRECTION('center_axis',(0.,0.,1.));
#976=DIRECTION('ref_axis',(1.,0.,0.));
#977=DIRECTION('',(1.,0.,0.));
#978=DIRECTION('',(0.,1.,0.));
#979=DIRECTION('',(-1.,0.,0.));
#980=DIRECTION('',(0.,-1.,0.));
#981=DIRECTION('',(1.,0.,0.));
#982=DIRECTION('',(0.,1.,0.));
#983=DIRECTION('',(-1.,0.,0.));
#984=DIRECTION('center_axis',(0.,0.,1.));
#985=DIRECTION('ref_axis',(1.,0.,0.));
#986=DIRECTION('center_axis',(0.,0.,1.));
#987=DIRECTION('ref_axis',(1.,0.,0.));
#988=DIRECTION('center_axis',(0.,0.,1.));
#989=DIRECTION('ref_axis',(1.,0.,0.));
#990=DIRECTION('center_axis',(0.,0.,1.));
#991=DIRECTION('ref_axis',(1.,0.,0.));
#992=DIRECTION('center_axis',(0.,0.,1.));
#993=DIRECTION('ref_axis',(1.,0.,0.));
#994=DIRECTION('center_axis',(0.,1.,0.));
#995=DIRECTION('ref_axis',(1.,0.,0.));
#996=DIRECTION('center_axis',(0.,1.,0.));
#997=DIRECTION('ref_axis',(1.,0.,0.));
#998=DIRECTION('',(0.,1.,0.));
#999=DIRECTION('center_axis',(0.,-1.,0.));
#1000=DIRECTION('ref_axis',(1.,0.,0.));
#1001=DIRECTION('center_axis',(0.,1.,0.));
#1002=DIRECTION('ref_axis',(1.,0.,0.));
#1003=DIRECTION('center_axis',(0.,1.,0.));
#1004=DIRECTION('ref_axis',(1.,0.,0.));
#1005=DIRECTION('',(0.,1.,0.));
#1006=DIRECTION('center_axis',(0.,-1.,0.));
#1007=DIRECTION('ref_axis',(1.,0.,0.));
#1008=DIRECTION('center_axis',(0.,-1.,0.));
#1009=DIRECTION('ref_axis',(0.,0.,-1.));
#1010=DIRECTION('',(0.,0.,-1.));
#1011=DIRECTION('',(0.,0.,1.));
#1012=DIRECTION('',(1.,0.,0.));
#1013=DIRECTION('center_axis',(0.,1.,0.));
#1014=DIRECTION('ref_axis',(0.,0.,1.));
#1015=DIRECTION('',(0.,0.,1.));
#1016=DIRECTION('',(-1.,0.,0.));
#1017=DIRECTION('',(0.,0.,-1.));
#1018=DIRECTION('center_axis',(-1.,0.,0.));
#1019=DIRECTION('ref_axis',(0.,-1.,0.));
#1020=DIRECTION('',(0.,1.,0.));
#1021=DIRECTION('',(0.,0.,1.));
#1022=DIRECTION('',(0.,-1.,0.));
#1023=DIRECTION('',(0.,0.,1.));
#1024=DIRECTION('',(0.,1.,0.));
#1025=DIRECTION('center_axis',(0.,0.,-1.));
#1026=DIRECTION('ref_axis',(-1.,0.,0.));
#1027=DIRECTION('',(0.,-1.,0.));
#1028=DIRECTION('',(1.,0.,0.));
#1029=DIRECTION('center_axis',(1.,0.,0.));
#1030=DIRECTION('ref_axis',(0.,0.,-1.));
#1031=DIRECTION('',(0.,0.,1.));
#1032=DIRECTION('center_axis',(1.,0.,0.));
#1033=DIRECTION('ref_axis',(0.,0.,-1.));
#1034=DIRECTION('',(0.,-1.,0.));
#1035=DIRECTION('',(0.,0.,-1.));
#1036=DIRECTION('center_axis',(0.,0.,-1.));
#1037=DIRECTION('ref_axis',(-1.,0.,0.));
#1038=DIRECTION('',(-1.,0.,0.));
#1039=DIRECTION('center_axis',(0.,0.,1.));
#1040=DIRECTION('ref_axis',(1.,0.,0.));
#1041=DIRECTION('',(0.,0.,1.));
#1042=DIRECTION('center_axis',(0.,0.,-1.));
#1043=DIRECTION('ref_axis',(1.,0.,0.));
#1044=DIRECTION('center_axis',(0.,0.,1.));
#1045=DIRECTION('ref_axis',(1.,0.,0.));
#1046=DIRECTION('',(0.,0.,1.));
#1047=DIRECTION('center_axis',(0.,0.,-1.));
#1048=DIRECTION('ref_axis',(1.,0.,0.));
#1049=DIRECTION('center_axis',(0.,0.,1.));
#1050=DIRECTION('ref_axis',(1.,0.,0.));
#1051=DIRECTION('',(0.,0.,1.));
#1052=DIRECTION('center_axis',(0.,0.,-1.));
#1053=DIRECTION('ref_axis',(1.,0.,0.));
#1054=DIRECTION('center_axis',(0.,0.,1.));
#1055=DIRECTION('ref_axis',(1.,0.,0.));
#1056=DIRECTION('',(0.,0.,1.));
#1057=DIRECTION('center_axis',(0.,0.,-1.));
#1058=DIRECTION('ref_axis',(1.,0.,0.));
#1059=DIRECTION('center_axis',(0.,0.,1.));
#1060=DIRECTION('ref_axis',(1.,0.,0.));
#1061=DIRECTION('',(0.,0.,1.));
#1062=DIRECTION('center_axis',(0.,0.,-1.));
#1063=DIRECTION('ref_axis',(1.,0.,0.));
#1064=DIRECTION('center_axis',(0.,1.,0.));
#1065=DIRECTION('ref_axis',(-1.,0.,0.));
#1066=DIRECTION('',(-1.,0.,0.));
#1067=DIRECTION('center_axis',(0.,-1.,0.));
#1068=DIRECTION('ref_axis',(1.,0.,0.));
#1069=DIRECTION('',(1.,0.,0.));
#1070=DIRECTION('center_axis',(0.,0.,1.));
#1071=DIRECTION('ref_axis',(1.,0.,0.));
#1072=DIRECTION('center_axis',(0.,1.,0.));
#1073=DIRECTION('ref_axis',(1.,0.,0.));
#1074=DIRECTION('center_axis',(0.,1.,0.));
#1075=DIRECTION('ref_axis',(1.,0.,0.));
#1076=DIRECTION('',(0.,1.,0.));
#1077=DIRECTION('center_axis',(0.,-1.,0.));
#1078=DIRECTION('ref_axis',(1.,0.,0.));
#1079=DIRECTION('center_axis',(0.,1.,0.));
#1080=DIRECTION('ref_axis',(-0.357137466266592,0.,0.934051834851085));
#1081=DIRECTION('',(0.,1.,0.));
#1082=DIRECTION('center_axis',(0.,-1.,0.));
#1083=DIRECTION('ref_axis',(1.,0.,0.));
#1084=DIRECTION('',(0.,-1.,0.));
#1085=DIRECTION('center_axis',(0.,1.,0.));
#1086=DIRECTION('ref_axis',(1.,0.,0.));
#1087=DIRECTION('center_axis',(0.,1.,0.));
#1088=DIRECTION('ref_axis',(0.,0.,1.));
#1089=DIRECTION('',(1.,0.,0.));
#1090=DIRECTION('',(0.,0.,-1.));
#1091=DIRECTION('',(-1.,0.,0.));
#1092=DIRECTION('',(-0.357137466266591,0.,0.934051834851085));
#1093=DIRECTION('center_axis',(0.,0.,1.));
#1094=DIRECTION('ref_axis',(1.,0.,0.));
#1095=DIRECTION('',(-1.,0.,0.));
#1096=DIRECTION('',(0.,1.,0.));
#1097=DIRECTION('center_axis',(0.,-1.,0.));
#1098=DIRECTION('ref_axis',(0.,0.,-1.));
#1099=DIRECTION('',(0.357137466266591,0.,-0.934051834851085));
#1100=DIRECTION('',(1.,0.,0.));
#1101=DIRECTION('',(0.,0.,1.));
#1102=DIRECTION('center_axis',(1.,0.,0.));
#1103=DIRECTION('ref_axis',(0.,0.,-1.));
#1104=DIRECTION('',(0.,-1.,0.));
#1105=DIRECTION('center_axis',(-0.934051834851085,0.,-0.357137466266591));
#1106=DIRECTION('ref_axis',(-0.357137466266591,0.,0.934051834851085));
#1107=DIRECTION('',(0.,1.,0.));
#1108=DIRECTION('center_axis',(0.,0.,-1.));
#1109=DIRECTION('ref_axis',(-1.,0.,0.));
#1110=DIRECTION('center_axis',(0.,1.,0.));
#1111=DIRECTION('ref_axis',(1.,0.,0.));
#1112=DIRECTION('center_axis',(0.,1.,0.));
#1113=DIRECTION('ref_axis',(1.,0.,0.));
#1114=DIRECTION('',(0.,1.,0.));
#1115=DIRECTION('center_axis',(0.,-1.,0.));
#1116=DIRECTION('ref_axis',(1.,0.,0.));
#1117=DIRECTION('center_axis',(0.,1.,0.));
#1118=DIRECTION('ref_axis',(1.,0.,0.));
#1119=DIRECTION('',(0.,1.,0.));
#1120=DIRECTION('center_axis',(0.,-1.,0.));
#1121=DIRECTION('ref_axis',(1.,0.,0.));
#1122=DIRECTION('',(0.,-1.,0.));
#1123=DIRECTION('center_axis',(0.,1.,0.));
#1124=DIRECTION('ref_axis',(1.,0.,0.));
#1125=DIRECTION('center_axis',(0.,1.,0.));
#1126=DIRECTION('ref_axis',(0.,0.,1.));
#1127=DIRECTION('',(-0.357137466266591,0.,-0.934051834851085));
#1128=DIRECTION('',(-1.,0.,0.));
#1129=DIRECTION('',(0.,0.,1.));
#1130=DIRECTION('',(1.,0.,0.));
#1131=DIRECTION('center_axis',(0.934051834851085,0.,-0.357137466266591));
#1132=DIRECTION('ref_axis',(-0.357137466266591,0.,-0.934051834851085));
#1133=DIRECTION('',(0.357137466266591,0.,0.934051834851085));
#1134=DIRECTION('',(0.,1.,0.));
#1135=DIRECTION('center_axis',(0.,-1.,0.));
#1136=DIRECTION('ref_axis',(0.,0.,-1.));
#1137=DIRECTION('',(-1.,0.,0.));
#1138=DIRECTION('',(0.,0.,-1.));
#1139=DIRECTION('',(1.,0.,0.));
#1140=DIRECTION('center_axis',(0.,0.,-1.));
#1141=DIRECTION('ref_axis',(-1.,0.,0.));
#1142=DIRECTION('',(0.,-1.,0.));
#1143=DIRECTION('center_axis',(0.,0.,1.));
#1144=DIRECTION('ref_axis',(1.,0.,0.));
#1145=DIRECTION('',(0.,1.,0.));
#1146=DIRECTION('center_axis',(-1.,0.,0.));
#1147=DIRECTION('ref_axis',(0.,0.,1.));
#1148=CARTESIAN_POINT('',(0.,0.,0.));
#1149=CARTESIAN_POINT('Origin',(42.,0.,-8.));
#1150=CARTESIAN_POINT('',(40.4,8.9,-8.));
#1151=CARTESIAN_POINT('Origin',(42.,8.9,-8.));
#1152=CARTESIAN_POINT('',(40.4,15.,-8.));
#1153=CARTESIAN_POINT('',(40.4,0.,-8.));
#1154=CARTESIAN_POINT('Origin',(42.,15.,-8.));
#1155=CARTESIAN_POINT('Origin',(42.,0.,-8.));
#1156=CARTESIAN_POINT('',(40.4,-15.,-8.));
#1157=CARTESIAN_POINT('Origin',(42.,-15.,-8.));
#1158=CARTESIAN_POINT('',(40.4,-8.9,-8.));
#1159=CARTESIAN_POINT('',(40.4,0.,-8.));
#1160=CARTESIAN_POINT('Origin',(42.,-8.9,-8.));
#1161=CARTESIAN_POINT('Origin',(42.,-8.9,-8.5));
#1162=CARTESIAN_POINT('',(34.,-8.9,0.));
#1163=CARTESIAN_POINT('',(34.,-8.9,-16.));
#1164=CARTESIAN_POINT('',(34.,-8.9,-12.25));
#1165=CARTESIAN_POINT('',(50.,-8.9,0.));
#1166=CARTESIAN_POINT('',(33.,-8.9,0.));
#1167=CARTESIAN_POINT('',(50.,-8.9,-16.));
#1168=CARTESIAN_POINT('',(50.,-8.9,-4.25));
#1169=CARTESIAN_POINT('',(46.,-8.9,-16.));
#1170=CARTESIAN_POINT('Origin',(42.,8.9,-8.5));
#1171=CARTESIAN_POINT('',(34.,8.9,-16.));
#1172=CARTESIAN_POINT('',(34.,8.9,0.));
#1173=CARTESIAN_POINT('',(34.,8.9,-12.25));
#1174=CARTESIAN_POINT('',(50.,8.9,-16.));
#1175=CARTESIAN_POINT('',(46.,8.9,-16.));
#1176=CARTESIAN_POINT('',(50.,8.9,0.));
#1177=CARTESIAN_POINT('',(50.,8.9,-4.25));
#1178=CARTESIAN_POINT('',(33.,8.9,0.));
#1179=CARTESIAN_POINT('Origin',(50.,-15.,0.));
#1180=CARTESIAN_POINT('',(50.,-7.5,0.));
#1181=CARTESIAN_POINT('',(50.,15.,-16.));
#1182=CARTESIAN_POINT('',(50.,0.,-16.));
#1183=CARTESIAN_POINT('',(50.,15.,8.));
#1184=CARTESIAN_POINT('',(50.,15.,0.));
#1185=CARTESIAN_POINT('',(50.,-15.,8.));
#1186=CARTESIAN_POINT('',(50.,-15.,8.));
#1187=CARTESIAN_POINT('',(50.,-15.,-16.));
#1188=CARTESIAN_POINT('',(50.,-15.,0.));
#1189=CARTESIAN_POINT('',(50.,0.,-16.));
#1190=CARTESIAN_POINT('Origin',(34.,0.,-16.));
#1191=CARTESIAN_POINT('',(34.,15.,0.));
#1192=CARTESIAN_POINT('',(34.,0.,0.));
#1193=CARTESIAN_POINT('',(34.,15.,-16.));
#1194=CARTESIAN_POINT('',(34.,15.,-16.));
#1195=CARTESIAN_POINT('',(34.,0.,-16.));
#1196=CARTESIAN_POINT('Origin',(50.,0.,-16.));
#1197=CARTESIAN_POINT('',(50.,15.,-16.));
#1198=CARTESIAN_POINT('Origin',(50.,0.,-16.));
#1199=CARTESIAN_POINT('',(34.,-15.,-16.));
#1200=CARTESIAN_POINT('',(50.,-15.,-16.));
#1201=CARTESIAN_POINT('',(34.,0.,-16.));
#1202=CARTESIAN_POINT('Origin',(34.,0.,-16.));
#1203=CARTESIAN_POINT('',(34.,-15.,0.));
#1204=CARTESIAN_POINT('',(34.,-15.,-16.));
#1205=CARTESIAN_POINT('',(34.,0.,0.));
#1206=CARTESIAN_POINT('Origin',(0.,0.,0.));
#1207=CARTESIAN_POINT('',(-34.,-15.,0.));
#1208=CARTESIAN_POINT('',(-50.,-15.,0.));
#1209=CARTESIAN_POINT('',(-34.,-8.9,0.));
#1210=CARTESIAN_POINT('',(-34.,0.,0.));
#1211=CARTESIAN_POINT('',(-50.,-8.9,0.));
#1212=CARTESIAN_POINT('',(-33.,-8.9,0.));
#1213=CARTESIAN_POINT('',(-50.,8.9,0.));
#1214=CARTESIAN_POINT('',(-50.,7.5,0.));
#1215=CARTESIAN_POINT('',(-34.,8.9,0.));
#1216=CARTESIAN_POINT('',(-33.,8.9,0.));
#1217=CARTESIAN_POINT('',(-34.,15.,0.));
#1218=CARTESIAN_POINT('',(-34.,0.,0.));
#1219=CARTESIAN_POINT('',(50.,15.,0.));
#1220=CARTESIAN_POINT('',(11.5,-7.5,0.));
#1221=CARTESIAN_POINT('Origin',(14.,-7.5,0.));
#1222=CARTESIAN_POINT('',(-16.5,7.5,0.));
#1223=CARTESIAN_POINT('Origin',(-14.,7.5,0.));
#1224=CARTESIAN_POINT('',(-16.5,-7.5,0.));
#1225=CARTESIAN_POINT('Origin',(-14.,-7.5,0.));
#1226=CARTESIAN_POINT('',(-4.,-4.89858719658941E-16,0.));
#1227=CARTESIAN_POINT('Origin',(0.,0.,0.));
#1228=CARTESIAN_POINT('',(11.5,7.5,0.));
#1229=CARTESIAN_POINT('Origin',(14.,7.5,0.));
#1230=CARTESIAN_POINT('Origin',(-42.,0.,-8.));
#1231=CARTESIAN_POINT('',(-43.6,8.9,-8.));
#1232=CARTESIAN_POINT('Origin',(-42.,8.9,-8.));
#1233=CARTESIAN_POINT('',(-43.6,15.,-8.));
#1234=CARTESIAN_POINT('',(-43.6,0.,-8.));
#1235=CARTESIAN_POINT('Origin',(-42.,15.,-8.));
#1236=CARTESIAN_POINT('Origin',(-42.,0.,-8.));
#1237=CARTESIAN_POINT('',(-43.6,-15.,-8.));
#1238=CARTESIAN_POINT('Origin',(-42.,-15.,-8.));
#1239=CARTESIAN_POINT('',(-43.6,-8.9,-8.));
#1240=CARTESIAN_POINT('',(-43.6,0.,-8.));
#1241=CARTESIAN_POINT('Origin',(-42.,-8.9,-8.));
#1242=CARTESIAN_POINT('Origin',(-42.,-8.9,-8.5));
#1243=CARTESIAN_POINT('',(-50.,-8.9,-16.));
#1244=CARTESIAN_POINT('',(-50.,-8.9,-4.25));
#1245=CARTESIAN_POINT('',(-34.,-8.9,-16.));
#1246=CARTESIAN_POINT('',(-34.,-8.9,-4.25));
#1247=CARTESIAN_POINT('',(-38.,-8.9,-16.));
#1248=CARTESIAN_POINT('Origin',(-42.,8.9,-8.5));
#1249=CARTESIAN_POINT('',(-50.,8.9,-16.));
#1250=CARTESIAN_POINT('',(-50.,8.9,-4.25));
#1251=CARTESIAN_POINT('',(-34.,8.9,-16.));
#1252=CARTESIAN_POINT('',(-38.,8.9,-16.));
#1253=CARTESIAN_POINT('',(-34.,8.9,-4.25));
#1254=CARTESIAN_POINT('Origin',(-50.,15.,0.));
#1255=CARTESIAN_POINT('',(-50.,-15.,-16.));
#1256=CARTESIAN_POINT('',(-50.,0.,-16.));
#1257=CARTESIAN_POINT('',(-50.,-15.,8.));
#1258=CARTESIAN_POINT('',(-50.,-15.,0.));
#1259=CARTESIAN_POINT('',(-50.,15.,8.));
#1260=CARTESIAN_POINT('',(-50.,15.,8.));
#1261=CARTESIAN_POINT('',(-50.,15.,-16.));
#1262=CARTESIAN_POINT('',(-50.,15.,0.));
#1263=CARTESIAN_POINT('',(-50.,0.,-16.));
#1264=CARTESIAN_POINT('Origin',(-34.,0.,-16.));
#1265=CARTESIAN_POINT('',(-34.,-15.,-16.));
#1266=CARTESIAN_POINT('',(-34.,0.,-16.));
#1267=CARTESIAN_POINT('',(-50.,-15.,-16.));
#1268=CARTESIAN_POINT('Origin',(-34.,0.,0.));
#1269=CARTESIAN_POINT('',(-34.,-15.,-16.));
#1270=CARTESIAN_POINT('Origin',(-34.,0.,0.));
#1271=CARTESIAN_POINT('',(-34.,15.,-16.));
#1272=CARTESIAN_POINT('',(-34.,0.,-16.));
#1273=CARTESIAN_POINT('',(-34.,15.,-16.));
#1274=CARTESIAN_POINT('Origin',(-34.,0.,-16.));
#1275=CARTESIAN_POINT('',(-50.,15.,-16.));
#1276=CARTESIAN_POINT('Origin',(14.,-7.5,0.));
#1277=CARTESIAN_POINT('',(11.5,-7.5,8.));
#1278=CARTESIAN_POINT('',(11.5,-7.5,0.));
#1279=CARTESIAN_POINT('Origin',(14.,-7.5,8.));
#1280=CARTESIAN_POINT('Origin',(-14.,7.5,0.));
#1281=CARTESIAN_POINT('',(-16.5,7.5,8.));
#1282=CARTESIAN_POINT('',(-16.5,7.5,0.));
#1283=CARTESIAN_POINT('Origin',(-14.,7.5,8.));
#1284=CARTESIAN_POINT('Origin',(-14.,-7.5,0.));
#1285=CARTESIAN_POINT('',(-16.5,-7.5,8.));
#1286=CARTESIAN_POINT('',(-16.5,-7.5,0.));
#1287=CARTESIAN_POINT('Origin',(-14.,-7.5,8.));
#1288=CARTESIAN_POINT('Origin',(0.,0.,0.));
#1289=CARTESIAN_POINT('',(-4.,-4.89858719658941E-16,8.));
#1290=CARTESIAN_POINT('',(-4.,-4.89858719658941E-16,0.));
#1291=CARTESIAN_POINT('Origin',(0.,0.,8.));
#1292=CARTESIAN_POINT('Origin',(14.,7.5,0.));
#1293=CARTESIAN_POINT('',(11.5,7.5,8.));
#1294=CARTESIAN_POINT('',(11.5,7.5,0.));
#1295=CARTESIAN_POINT('Origin',(14.,7.5,8.));
#1296=CARTESIAN_POINT('Origin',(50.,15.,0.));
#1297=CARTESIAN_POINT('',(50.,15.,8.));
#1298=CARTESIAN_POINT('Origin',(-50.,-15.,0.));
#1299=CARTESIAN_POINT('',(-50.,-15.,8.));
#1300=CARTESIAN_POINT('Origin',(0.,0.,8.));
#1301=CARTESIAN_POINT('Origin',(-42.,0.,-8.));
#1302=CARTESIAN_POINT('',(-43.75,-8.5,-8.));
#1303=CARTESIAN_POINT('Origin',(-42.,-8.5,-8.));
#1304=CARTESIAN_POINT('',(-43.75,8.5,-8.));
#1305=CARTESIAN_POINT('',(-43.75,0.,-8.));
#1306=CARTESIAN_POINT('Origin',(-42.,8.5,-8.));
#1307=CARTESIAN_POINT('Origin',(-42.,0.,-8.));
#1308=CARTESIAN_POINT('',(-47.2143396226415,-8.5,-12.6701886792453));
#1309=CARTESIAN_POINT('',(-47.2143396226415,8.5,-12.6701886792453));
#1310=CARTESIAN_POINT('',(-47.2143396226415,0.,-12.6701886792453));
#1311=CARTESIAN_POINT('',(-35.,-8.5,-8.));
#1312=CARTESIAN_POINT('Origin',(-42.,-8.5,-8.));
#1313=CARTESIAN_POINT('',(-35.,8.5,-8.));
#1314=CARTESIAN_POINT('',(-35.,0.,-8.));
#1315=CARTESIAN_POINT('Origin',(-42.,8.5,-8.));
#1316=CARTESIAN_POINT('Origin',(-39.5,8.5,-25.));
#1317=CARTESIAN_POINT('',(-30.,8.5,-8.));
#1318=CARTESIAN_POINT('',(-30.,8.5,-8.));
#1319=CARTESIAN_POINT('',(-30.,8.5,-42.));
#1320=CARTESIAN_POINT('',(-30.,8.5,-42.));
#1321=CARTESIAN_POINT('',(-36.,8.5,-42.));
#1322=CARTESIAN_POINT('',(-36.,8.5,-42.));
#1323=CARTESIAN_POINT('',(-49.,8.5,-8.));
#1324=CARTESIAN_POINT('Origin',(-49.,0.,-8.));
#1325=CARTESIAN_POINT('',(-30.,-8.5,-8.));
#1326=CARTESIAN_POINT('',(-30.,-8.5,-8.));
#1327=CARTESIAN_POINT('',(-30.,0.,-8.));
#1328=CARTESIAN_POINT('Origin',(-39.5,-8.5,-25.));
#1329=CARTESIAN_POINT('',(-36.,-8.5,-42.));
#1330=CARTESIAN_POINT('',(-49.,-8.5,-8.));
#1331=CARTESIAN_POINT('',(-30.,-8.5,-42.));
#1332=CARTESIAN_POINT('',(-36.,-8.5,-42.));
#1333=CARTESIAN_POINT('',(-30.,-8.5,-42.));
#1334=CARTESIAN_POINT('Origin',(-30.,0.,-8.));
#1335=CARTESIAN_POINT('',(-30.,0.,-42.));
#1336=CARTESIAN_POINT('Origin',(-36.,0.,-42.));
#1337=CARTESIAN_POINT('',(-36.,0.,-42.));
#1338=CARTESIAN_POINT('Origin',(-30.,0.,-42.));
#1339=CARTESIAN_POINT('Origin',(42.,0.,-8.));
#1340=CARTESIAN_POINT('',(40.25,-8.5,-8.));
#1341=CARTESIAN_POINT('Origin',(42.,-8.5,-8.));
#1342=CARTESIAN_POINT('',(40.25,8.5,-8.));
#1343=CARTESIAN_POINT('',(40.25,0.,-8.));
#1344=CARTESIAN_POINT('Origin',(42.,8.5,-8.));
#1345=CARTESIAN_POINT('Origin',(42.,0.,-8.));
#1346=CARTESIAN_POINT('',(35.,-8.5,-8.));
#1347=CARTESIAN_POINT('',(35.,8.5,-8.));
#1348=CARTESIAN_POINT('',(35.,0.,-8.));
#1349=CARTESIAN_POINT('',(47.2143396226415,-8.5,-12.6701886792453));
#1350=CARTESIAN_POINT('Origin',(42.,-8.5,-8.));
#1351=CARTESIAN_POINT('',(47.2143396226415,8.5,-12.6701886792453));
#1352=CARTESIAN_POINT('',(47.2143396226415,0.,-12.6701886792453));
#1353=CARTESIAN_POINT('Origin',(42.,8.5,-8.));
#1354=CARTESIAN_POINT('Origin',(39.5,8.5,-25.));
#1355=CARTESIAN_POINT('',(36.,8.5,-42.));
#1356=CARTESIAN_POINT('',(49.,8.5,-8.));
#1357=CARTESIAN_POINT('',(30.,8.5,-42.));
#1358=CARTESIAN_POINT('',(36.,8.5,-42.));
#1359=CARTESIAN_POINT('',(30.,8.5,-8.));
#1360=CARTESIAN_POINT('',(30.,8.5,-42.));
#1361=CARTESIAN_POINT('',(30.,8.5,-8.));
#1362=CARTESIAN_POINT('Origin',(49.,0.,-8.));
#1363=CARTESIAN_POINT('',(36.,-8.5,-42.));
#1364=CARTESIAN_POINT('',(49.,-8.5,-8.));
#1365=CARTESIAN_POINT('',(36.,0.,-42.));
#1366=CARTESIAN_POINT('Origin',(39.5,-8.5,-25.));
#1367=CARTESIAN_POINT('',(30.,-8.5,-8.));
#1368=CARTESIAN_POINT('',(30.,-8.5,-8.));
#1369=CARTESIAN_POINT('',(30.,-8.5,-42.));
#1370=CARTESIAN_POINT('',(30.,-8.5,-42.));
#1371=CARTESIAN_POINT('',(36.,-8.5,-42.));
#1372=CARTESIAN_POINT('Origin',(36.,0.,-42.));
#1373=CARTESIAN_POINT('',(30.,0.,-42.));
#1374=CARTESIAN_POINT('Origin',(30.,0.,-8.));
#1375=CARTESIAN_POINT('',(30.,0.,-8.));
#1376=CARTESIAN_POINT('Origin',(30.,0.,-42.));
#1377=UNCERTAINTY_MEASURE_WITH_UNIT(LENGTH_MEASURE(0.01),#1381,
'DISTANCE_ACCURACY_VALUE',
'Maximum model space distance between geometric entities at asserted c
onnectivities');
#1378=UNCERTAINTY_MEASURE_WITH_UNIT(LENGTH_MEASURE(0.01),#1381,
'DISTANCE_ACCURACY_VALUE',
'Maximum model space distance between geometric entities at asserted c
onnectivities');
#1379=(
GEOMETRIC_REPRESENTATION_CONTEXT(3)
GLOBAL_UNCERTAINTY_ASSIGNED_CONTEXT((#1377))
GLOBAL_UNIT_ASSIGNED_CONTEXT((#1381,#1383,#1384))
REPRESENTATION_CONTEXT('','3D')
);
#1380=(
GEOMETRIC_REPRESENTATION_CONTEXT(3)
GLOBAL_UNCERTAINTY_ASSIGNED_CONTEXT((#1378))
GLOBAL_UNIT_ASSIGNED_CONTEXT((#1381,#1383,#1384))
REPRESENTATION_CONTEXT('','3D')
);
#1381=(
LENGTH_UNIT()
NAMED_UNIT(*)
SI_UNIT(.MILLI.,.METRE.)
);
#1382=(
LENGTH_UNIT()
NAMED_UNIT(*)
SI_UNIT($,.METRE.)
);
#1383=(
NAMED_UNIT(*)
PLANE_ANGLE_UNIT()
SI_UNIT($,.RADIAN.)
);
#1384=(
NAMED_UNIT(*)
SI_UNIT($,.STERADIAN.)
SOLID_ANGLE_UNIT()
);
#1385=SHAPE_DEFINITION_REPRESENTATION(#1386,#1387);
#1386=PRODUCT_DEFINITION_SHAPE('',$,#1389);
#1387=SHAPE_REPRESENTATION('',(#853),#1379);
#1388=PRODUCT_DEFINITION_CONTEXT('part definition',#1393,'design');
#1389=PRODUCT_DEFINITION('2026-10-03-22-37-06-493','(Unsaved)',#1390,#1388);
#1390=PRODUCT_DEFINITION_FORMATION('',$,#1395);
#1391=PRODUCT_RELATED_PRODUCT_CATEGORY('(Unsaved)','(Unsaved)',(#1395));
#1392=APPLICATION_PROTOCOL_DEFINITION('international standard',
'automotive_design',2009,#1393);
#1393=APPLICATION_CONTEXT(
'Core Data for Automotive Mechanical Design Process');
#1394=PRODUCT_CONTEXT('part definition',#1393,'mechanical');
#1395=PRODUCT('2026-10-03-22-37-06-493','(Unsaved)',$,(#1394));
#1396=PRESENTATION_STYLE_ASSIGNMENT((#1397));
#1397=SURFACE_STYLE_USAGE(.BOTH.,#1398);
#1398=SURFACE_SIDE_STYLE('',(#1399));
#1399=SURFACE_STYLE_FILL_AREA(#1400);
#1400=FILL_AREA_STYLE('Steel - Satin',(#1401));
#1401=FILL_AREA_STYLE_COLOUR('Steel - Satin',#1402);
#1402=COLOUR_RGB('Steel - Satin',0.627450980392157,0.627450980392157,0.627450980392157);
ENDSEC;
END-ISO-10303-21;
